<svg width="29" height="39" viewBox="0 0 29 39" fill="none" xmlns="http://www.w3.org/2000/svg">
<path d="M28.3499 38.4098H0.649902C0.517294 38.4098 0.390117 38.3572 0.296349 38.2634C0.20258 38.1696 0.149902 38.0424 0.149902 37.9098V1.08984C0.149902 0.957236 0.20258 0.830058 0.296349 0.73629C0.390117 0.642522 0.517294 0.589844 0.649902 0.589844H18.6499C18.7719 0.592299 18.889 0.638423 18.9799 0.719843L28.6499 9.62984C28.7005 9.67512 28.741 9.73061 28.7685 9.79267C28.7961 9.85473 28.8102 9.92194 28.8099 9.98985V37.9098C28.8103 38.0358 28.7632 38.1573 28.6779 38.25C28.5926 38.3427 28.4755 38.3998 28.3499 38.4098ZM1.1399 37.4098H27.8599V10.2098L18.4999 1.57984H1.1399V37.4098Z" fill="#2A7DE1"/>
<path d="M23.3 5.55984L18.48 1.08984V10.2498H28.35L23.3 5.55984Z" fill="#2A7DE1"/>
<path d="M22.8399 17.9997H6.76989C6.71828 18.0084 6.6654 18.0057 6.61493 17.9919C6.56445 17.978 6.5176 17.9533 6.47764 17.9196C6.43768 17.8858 6.40556 17.8437 6.38354 17.7962C6.36151 17.7487 6.3501 17.697 6.3501 17.6447C6.3501 17.5923 6.36151 17.5406 6.38354 17.4932C6.40556 17.4457 6.43768 17.4036 6.47764 17.3698C6.5176 17.336 6.56445 17.3113 6.61493 17.2975C6.6654 17.2836 6.71828 17.281 6.76989 17.2897H22.8399C22.9238 17.3038 23 17.3472 23.055 17.4122C23.1099 17.4772 23.1401 17.5596 23.1401 17.6447C23.1401 17.7298 23.1099 17.8121 23.055 17.8771C23 17.9421 22.9238 17.9855 22.8399 17.9997Z" fill="#2A7DE1"/>
<path d="M22.8399 22.1198H6.76989C6.71828 22.1285 6.6654 22.1258 6.61493 22.112C6.56445 22.0981 6.5176 22.0735 6.47764 22.0397C6.43768 22.0059 6.40556 21.9638 6.38354 21.9163C6.36151 21.8688 6.3501 21.8171 6.3501 21.7648C6.3501 21.7124 6.36151 21.6607 6.38354 21.6133C6.40556 21.5658 6.43768 21.5237 6.47764 21.4899C6.5176 21.4561 6.56445 21.4314 6.61493 21.4176C6.6654 21.4038 6.71828 21.4011 6.76989 21.4098H22.8399C22.9238 21.4239 23 21.4673 23.055 21.5323C23.1099 21.5973 23.1401 21.6797 23.1401 21.7648C23.1401 21.8499 23.1099 21.9323 23.055 21.9972C23 22.0622 22.9238 22.1056 22.8399 22.1198Z" fill="#2A7DE1"/>
<path d="M22.8399 26.2497H6.76989C6.71828 26.2584 6.6654 26.2557 6.61493 26.2419C6.56445 26.228 6.5176 26.2033 6.47764 26.1696C6.43768 26.1358 6.40556 26.0937 6.38354 26.0462C6.36151 25.9987 6.3501 25.947 6.3501 25.8947C6.3501 25.8423 6.36151 25.7906 6.38354 25.7432C6.40556 25.6957 6.43768 25.6536 6.47764 25.6198C6.5176 25.586 6.56445 25.5613 6.61493 25.5475C6.6654 25.5336 6.71828 25.531 6.76989 25.5397H22.8399C22.9238 25.5538 23 25.5972 23.055 25.6622C23.1099 25.7272 23.1401 25.8096 23.1401 25.8947C23.1401 25.9798 23.1099 26.0621 23.055 26.1271C23 26.1921 22.9238 26.2355 22.8399 26.2497Z" fill="#2A7DE1"/>
<path d="M22.8399 30.38H6.76989C6.71828 30.3887 6.6654 30.3861 6.61493 30.3722C6.56445 30.3584 6.5176 30.3337 6.47764 30.2999C6.43768 30.2661 6.40556 30.224 6.38354 30.1766C6.36151 30.1291 6.3501 30.0774 6.3501 30.025C6.3501 29.9727 6.36151 29.921 6.38354 29.8735C6.40556 29.826 6.43768 29.7839 6.47764 29.7502C6.5176 29.7164 6.56445 29.6917 6.61493 29.6778C6.6654 29.664 6.71828 29.6613 6.76989 29.67H22.8399C22.9238 29.6842 23 29.7276 23.055 29.7926C23.1099 29.8576 23.1401 29.9399 23.1401 30.025C23.1401 30.1102 23.1099 30.1925 23.055 30.2575C23 30.3225 22.9238 30.3659 22.8399 30.38Z" fill="#2A7DE1"/>
</svg>
