<svg width="19" height="21" viewBox="0 0 19 21" fill="none" xmlns="http://www.w3.org/2000/svg">
<path d="M1.29008 0.299805H17.7101C17.8098 0.300584 17.9074 0.328442 17.9924 0.380402C18.0775 0.432361 18.1469 0.506467 18.1931 0.594795C18.2393 0.683124 18.2607 0.782354 18.2548 0.881874C18.249 0.981394 18.2163 1.07746 18.1601 1.15981L11.6001 10.5498C11.5403 10.6421 11.509 10.7499 11.5101 10.8598V17.1398C11.5113 17.2835 11.4816 17.4257 11.4229 17.5569C11.3643 17.688 11.278 17.805 11.1701 17.8998L8.30008 20.5998C8.21774 20.656 8.12167 20.6888 8.02215 20.6946C7.92263 20.7004 7.8234 20.679 7.73508 20.6328C7.64675 20.5866 7.57264 20.5172 7.52068 20.4322C7.46872 20.3471 7.44086 20.2495 7.44008 20.1498V10.8598C7.44228 10.7482 7.40708 10.6391 7.34008 10.5498L0.840082 1.15981C0.783891 1.07746 0.751137 0.981394 0.745322 0.881874C0.739506 0.782354 0.760848 0.683124 0.807066 0.594795C0.853285 0.506467 0.922641 0.432361 1.00772 0.380402C1.0928 0.328442 1.1904 0.300584 1.29008 0.299805V0.299805Z" fill="white"/>
</svg>
