<svg width="29" height="19" viewBox="0 0 29 19" fill="none" xmlns="http://www.w3.org/2000/svg">
<path d="M19.3701 13.3799L14.5001 18.2499L9.63013 13.3799" stroke="white" stroke-width="1.5" stroke-linecap="round" stroke-linejoin="round"/>
<path d="M14.5 18.25V8.5" stroke="white" stroke-width="1.5" stroke-linecap="round" stroke-linejoin="round"/>
<path d="M27.2701 16.2601C27.6566 15.4908 27.8553 14.6409 27.8501 13.7801C27.8501 12.3108 27.2664 10.9016 26.2275 9.86269C25.1885 8.82374 23.7794 8.24007 22.3101 8.24007C21.6266 8.23119 20.9476 8.35339 20.3101 8.60006C20.0306 7.17289 19.433 5.82704 18.5619 4.66251C17.6908 3.49798 16.5685 2.54469 15.2784 1.87347C13.9882 1.20224 12.5634 0.830343 11.1098 0.785388C9.65624 0.740433 8.21119 1.02358 6.88205 1.6138C5.55291 2.20402 4.37383 3.08613 3.43243 4.19461C2.49102 5.30308 1.81147 6.60943 1.44427 8.01661C1.07706 9.42378 1.03164 10.8956 1.31138 12.3227C1.59112 13.7499 2.18883 15.0956 3.0601 16.2601" stroke="white" stroke-width="1.5" stroke-linecap="round" stroke-linejoin="round"/>
</svg>
