<svg width="132" height="42" viewBox="0 0 132 42" fill="none" xmlns="http://www.w3.org/2000/svg">
<g clip-path="url(#clip0_24_11)">
<path d="M63.7601 3.51014C65.5001 4.91014 66.3701 7.1768 66.3701 10.3101V13.5201C66.3701 16.6468 65.5001 18.9135 63.7601 20.3201C61.9894 21.7277 59.7816 22.4707 57.5201 22.4201H52.7801V32.7001H47.8601V1.41014H57.5201C59.7816 1.35955 61.9894 2.10255 63.7601 3.51014ZM61.4101 10.9301C61.506 9.65023 61.1129 8.38158 60.3101 7.38014C59.958 6.99284 59.5264 6.68605 59.045 6.48069C58.5635 6.27532 58.0434 6.17622 57.5201 6.19014H52.7801V17.6401H57.5201C58.0434 17.6541 58.5635 17.555 59.045 17.3496C59.5264 17.1442 59.958 16.8374 60.3101 16.4501C61.1129 15.4487 61.506 14.18 61.4101 12.9001V10.9301Z" fill="white"/>
<path d="M80 11.6198C81.0864 12.1669 81.9361 13.0912 82.39 14.2198C83.0494 15.9335 83.3457 17.7655 83.26 19.5998V32.6998H79.83L78.94 29.8398C78.4543 30.7831 77.7149 31.5722 76.805 32.1181C75.8952 32.664 74.851 32.9451 73.79 32.9298C72.1496 32.9516 70.5674 32.3223 69.39 31.1798C68.15 30.0198 67.53 28.2031 67.53 25.7298C67.53 23.2564 68.15 21.4298 69.39 20.2498C70.5664 19.1046 72.1484 18.4718 73.79 18.4898C74.8823 18.4648 75.9671 18.6763 76.97 19.1098C77.8329 19.488 78.5392 20.1519 78.97 20.9898V19.5998C79.0415 18.5155 78.7836 17.4349 78.23 16.4998C77.74 15.7998 76.76 15.4498 75.3 15.4498H69.55L70.44 10.9298H76.16C77.4743 10.8869 78.7829 11.122 80 11.6198ZM78 27.9198C78.3553 27.6852 78.6375 27.3555 78.8143 26.9683C78.9911 26.581 79.0555 26.1519 79 25.7298C79.0555 25.3077 78.9911 24.8785 78.8143 24.4913C78.6375 24.104 78.3553 23.7743 78 23.5398C77.194 23.1399 76.2987 22.954 75.4 22.9998C74.5136 22.9585 73.6307 23.1371 72.83 23.5198C72.4723 23.7567 72.1886 24.0898 72.0117 24.4807C71.8348 24.8717 71.7719 25.3046 71.83 25.7298C71.777 26.1517 71.8424 26.58 72.019 26.9668C72.1956 27.3536 72.4765 27.6836 72.83 27.9198C73.6366 28.2757 74.5084 28.4596 75.39 28.4596C76.2716 28.4596 77.1435 28.2757 77.95 27.9198H78Z" fill="white"/>
<path d="M87.9 7.39978C87.6368 7.16539 87.4299 6.87457 87.2948 6.54903C87.1598 6.2235 87.1 5.87166 87.12 5.51978C87.1015 5.16808 87.1619 4.81668 87.2969 4.49137C87.4318 4.16607 87.6379 3.87509 87.9 3.63978C88.4636 3.18173 89.1742 2.94367 89.9 2.96978C90.6271 2.93417 91.341 3.17333 91.9 3.63978C92.1573 3.87784 92.3588 4.1698 92.4902 4.49479C92.6216 4.81979 92.6796 5.16979 92.66 5.51978C92.681 5.86993 92.6236 6.22036 92.4922 6.54557C92.3607 6.87078 92.1584 7.1626 91.9 7.39978C91.3435 7.87067 90.6278 8.11044 89.9 8.06978C89.1742 8.0959 88.4636 7.85784 87.9 7.39978ZM92.08 10.9298V32.6998H87.74V10.9298H92.08Z" fill="white"/>
<path d="M111.71 10.9299V32.9999C111.71 36.3332 111.06 38.5965 109.76 39.7899C108.351 41.061 106.496 41.7226 104.6 41.6299H98.6L97.7 37.1599H103.7C105.16 37.1599 106.14 36.7999 106.63 36.0999C107.184 35.1647 107.442 34.0842 107.37 32.9999V29.3999C106.8 30.4305 106.015 31.3272 105.07 32.0299C104.154 32.6494 103.066 32.9643 101.96 32.9299C101.267 32.9398 100.579 32.8053 99.9399 32.535C99.3012 32.2647 98.7257 31.8645 98.25 31.3599C97.7062 30.7777 97.2865 30.0909 97.0166 29.3413C96.7467 28.5918 96.6322 27.7951 96.68 26.9999V16.6499C96.6396 15.8553 96.7576 15.0607 97.0271 14.3122C97.2967 13.5637 97.7124 12.8762 98.25 12.2899C98.7313 11.7808 99.3133 11.3774 99.9589 11.1054C100.604 10.8334 101.3 10.6987 102 10.7099C103.104 10.6772 104.191 10.9882 105.11 11.5999C106.053 12.309 106.837 13.2084 107.41 14.2399L108.31 10.9299H111.71ZM107.37 18.3099C107.407 17.8765 107.347 17.4402 107.193 17.0334C107.039 16.6267 106.795 16.2597 106.48 15.9599C105.831 15.4517 105.024 15.1896 104.2 15.2199C103.376 15.1861 102.567 15.4486 101.92 15.9599C101.601 16.2575 101.355 16.6238 101.199 17.031C101.043 17.4381 100.982 17.8755 101.02 18.3099V25.3099C100.984 25.747 101.046 26.1868 101.201 26.5968C101.357 27.0069 101.603 27.377 101.92 27.6799C102.563 28.2015 103.373 28.4716 104.2 28.4399C105.027 28.468 105.836 28.1983 106.48 27.6799C106.792 27.3736 107.034 27.0027 107.187 26.5933C107.341 26.1839 107.403 25.7459 107.37 25.3099V18.3099Z" fill="white"/>
<path d="M129.5 12.7599C130.27 13.4844 130.872 14.3678 131.266 15.3487C131.66 16.3296 131.835 17.3844 131.78 18.4399V23.0899H119.93V25.3299C119.912 25.75 119.981 26.1693 120.132 26.5616C120.284 26.9539 120.514 27.3108 120.81 27.6099C121.626 28.2509 122.657 28.5551 123.69 28.4599C126.19 28.4599 127.45 27.4099 127.45 25.3299L131.78 26.2299C131.805 27.4684 131.43 28.682 130.71 29.6899C129.957 30.7174 128.946 31.528 127.78 32.0399C126.493 32.6133 125.098 32.9032 123.69 32.8899C121.562 32.9684 119.483 32.2316 117.88 30.8299C117.109 30.1067 116.505 29.2235 116.111 28.2423C115.717 27.2611 115.543 26.2057 115.6 25.1499V18.4399C115.545 17.3844 115.72 16.3296 116.114 15.3487C116.508 14.3678 117.11 13.4844 117.88 12.7599C119.526 11.4337 121.576 10.7104 123.69 10.7104C125.804 10.7104 127.854 11.4337 129.5 12.7599ZM127.5 19.5599V18.3099C127.5 16.2499 126.24 15.2199 123.74 15.2199C121.24 15.2199 119.98 16.2199 119.98 18.3099V19.5599H127.5Z" fill="white"/>
<path d="M3.29589e-05 16.51V8.66C-0.0103982 7.93444 0.0600362 7.20997 0.210033 6.5C0.55032 4.99322 1.30288 3.61074 2.38363 2.50703C3.46438 1.40333 4.83074 0.621879 6.33003 0.25C6.98648 0.0989798 7.65661 0.0152142 8.33003 0L24.43 0C24.86 0 25.29 0 25.72 0.07C27.1283 0.221286 28.4744 0.730872 29.6297 1.55015C30.7851 2.36943 31.7114 3.47107 32.32 4.75C32.8478 5.83806 33.1246 7.03071 33.13 8.24C33.13 9.03 33.13 9.83 33.13 10.63V24.47C33.1199 24.9823 33.0765 25.4934 33 26C32.7625 27.5244 32.1068 28.9531 31.1058 30.1271C30.1048 31.3011 28.7977 32.1745 27.33 32.65C26.5274 32.9052 25.6921 33.0433 24.85 33.06H8.61003C8.13254 33.0748 7.6546 33.0548 7.18003 33C5.20455 32.7206 3.39441 31.743 2.07735 30.2444C0.760292 28.7457 0.0233785 26.825 3.29589e-05 24.83V16.51ZM10.57 26.69C11.1191 26.721 11.6687 26.6402 12.1856 26.4524C12.7025 26.2646 13.1758 25.9738 13.5769 25.5975C13.978 25.2213 14.2985 24.7675 14.5189 24.2636C14.7393 23.7598 14.855 23.2164 14.8591 22.6665C14.8632 22.1166 14.7555 21.5716 14.5426 21.0645C14.3296 20.5575 14.0159 20.099 13.6204 19.7168C13.225 19.3347 12.756 19.0369 12.2419 18.8415C11.7279 18.646 11.1795 18.5571 10.63 18.58C9.58864 18.6234 8.60384 19.0657 7.87957 19.8153C7.1553 20.5648 6.74704 21.5642 6.73932 22.6064C6.73161 23.6487 7.12505 24.654 7.83815 25.4142C8.55125 26.1744 9.5294 26.6312 10.57 26.69ZM18.46 22.63C18.4601 23.4331 18.6989 24.2181 19.1462 24.8852C19.5935 25.5522 20.229 26.0712 20.9719 26.3763C21.7149 26.6813 22.5318 26.7585 23.3187 26.5981C24.1057 26.4378 24.8272 26.047 25.3915 25.4756C25.9559 24.9042 26.3376 24.1779 26.4882 23.389C26.6388 22.6001 26.5514 21.7843 26.2372 21.0452C25.923 20.3061 25.3961 19.6771 24.7236 19.2381C24.051 18.7992 23.2631 18.5701 22.46 18.58C21.9305 18.58 21.4063 18.6851 20.9177 18.8892C20.4291 19.0933 19.9859 19.3924 19.6138 19.7692C19.2417 20.1459 18.9481 20.5928 18.75 21.0839C18.552 21.575 18.4534 22.1005 18.46 22.63Z" fill="white"/>
</g>
<defs>
<clipPath id="clip0_24_11">
<rect width="131.78" height="41.65" fill="white"/>
</clipPath>
</defs>
</svg>
