<svg width="35" height="35" viewBox="0 0 35 35" fill="none" xmlns="http://www.w3.org/2000/svg">
<path d="M0.999999 17.4602V9.6102C0.995061 8.88487 1.06544 8.16099 1.21 7.4502C1.55028 5.94342 2.30285 4.56093 3.3836 3.45723C4.46434 2.35352 5.8307 1.57207 7.33 1.2002C7.98645 1.04918 8.65658 0.96541 9.33 0.950195H25.43C25.86 0.950195 26.29 0.950195 26.72 1.0202C28.1286 1.17055 29.475 1.67977 30.6306 2.49916C31.7861 3.31854 32.7121 4.42069 33.32 5.7002C33.8056 6.79779 34.038 7.99058 34 9.19019C34 9.98019 34 10.7802 34 11.5802V25.4202C34.0355 25.9463 34.0355 26.4741 34 27.0002C33.6933 28.9496 32.7069 30.7277 31.2153 32.0197C29.7238 33.3118 27.8232 34.0346 25.85 34.0602H9.56C9.08584 34.0751 8.61122 34.055 8.14 34.0002C6.95093 33.8458 5.81042 33.4316 4.7994 32.787C3.78838 32.1424 2.93165 31.2831 2.29 30.2702C1.43742 28.9286 0.989552 27.3697 0.999999 25.7802V17.4602ZM11.52 27.6402C12.328 27.652 13.1211 27.4225 13.7979 26.981C14.4747 26.5395 15.0043 25.9061 15.319 25.1618C15.6337 24.4175 15.7192 23.5963 15.5644 22.8032C15.4097 22.0101 15.0218 21.2812 14.4504 20.7098C13.879 20.1384 13.1501 19.7505 12.357 19.5958C11.5639 19.441 10.7427 19.5265 9.99839 19.8412C9.25413 20.1559 8.6207 20.6855 8.17918 21.3623C7.73766 22.0391 7.50814 22.8322 7.52 23.6402C7.53549 24.6962 7.9619 25.7047 8.70871 26.4515C9.45552 27.1983 10.464 27.6247 11.52 27.6402V27.6402ZM19.41 23.5802C19.4001 24.3854 19.6305 25.1752 20.0717 25.8489C20.5129 26.5225 21.1448 27.0493 21.8869 27.362C22.6289 27.6747 23.4474 27.7591 24.2376 27.6045C25.0279 27.4498 25.7541 27.0631 26.3235 26.4937C26.8929 25.9243 27.2796 25.1981 27.4343 24.4078C27.589 23.6176 27.5045 22.7991 27.1918 22.0571C26.8791 21.315 26.3523 20.6831 25.6787 20.2419C25.005 19.8007 24.2152 19.5703 23.41 19.5802C22.8847 19.5802 22.3646 19.6837 21.8793 19.8847C21.394 20.0857 20.953 20.3803 20.5816 20.7518C20.2101 21.1232 19.9155 21.5642 19.7145 22.0495C19.5135 22.5348 19.41 23.0549 19.41 23.5802V23.5802Z" stroke="white" stroke-width="1.4" stroke-linecap="round" stroke-linejoin="round"/>
</svg>
