<svg width="34" height="35" viewBox="0 0 34 35" fill="none" xmlns="http://www.w3.org/2000/svg">
<path d="M-1.298e-06 17.4602V9.6102C-0.00493911 8.88487 0.0654372 8.16099 0.209998 7.4502C0.550285 5.94342 1.30285 4.56093 2.3836 3.45723C3.46434 2.35352 4.8307 1.57207 6.33 1.2002C6.98645 1.04918 7.65658 0.96541 8.33 0.950195H24.43C24.86 0.950195 25.29 0.950195 25.72 1.0202C27.1286 1.17055 28.475 1.67977 29.6306 2.49916C30.7861 3.31854 31.7121 4.42069 32.32 5.7002C32.8056 6.79779 33.038 7.99058 33 9.19019C33 9.98019 33 10.7802 33 11.5802V25.4202C33.0355 25.9463 33.0355 26.4741 33 27.0002C32.6933 28.9496 31.7069 30.7277 30.2153 32.0197C28.7238 33.3118 26.8232 34.0346 24.85 34.0602H8.56C8.08584 34.0751 7.61122 34.055 7.14 34.0002C5.95093 33.8458 4.81042 33.4316 3.7994 32.787C2.78838 32.1424 1.93165 31.2831 1.29 30.2702C0.437425 28.9286 -0.0104478 27.3697 -1.298e-06 25.7802V17.4602ZM10.52 27.6402C11.328 27.652 12.1211 27.4225 12.7979 26.981C13.4747 26.5395 14.0043 25.9061 14.319 25.1618C14.6337 24.4175 14.7192 23.5963 14.5644 22.8032C14.4097 22.0101 14.0218 21.2812 13.4504 20.7098C12.879 20.1384 12.1501 19.7505 11.357 19.5958C10.5639 19.441 9.74266 19.5265 8.99839 19.8412C8.25413 20.1559 7.6207 20.6855 7.17918 21.3623C6.73766 22.0391 6.50814 22.8322 6.52 23.6402C6.53549 24.6962 6.9619 25.7047 7.70871 26.4515C8.45552 27.1983 9.46396 27.6247 10.52 27.6402V27.6402ZM18.41 23.5802C18.4001 24.3854 18.6305 25.1752 19.0717 25.8489C19.5129 26.5225 20.1448 27.0493 20.8869 27.362C21.6289 27.6747 22.4474 27.7591 23.2376 27.6045C24.0279 27.4498 24.7541 27.0631 25.3235 26.4937C25.8929 25.9243 26.2796 25.1981 26.4343 24.4078C26.589 23.6176 26.5045 22.7991 26.1918 22.0571C25.8791 21.315 25.3523 20.6831 24.6787 20.2419C24.005 19.8007 23.2152 19.5703 22.41 19.5802C21.8847 19.5802 21.3646 19.6837 20.8793 19.8847C20.394 20.0857 19.953 20.3803 19.5816 20.7518C19.2101 21.1232 18.9155 21.5642 18.7145 22.0495C18.5135 22.5348 18.41 23.0549 18.41 23.5802V23.5802Z" fill="white"/>
</svg>
