<svg width="25" height="21" viewBox="0 0 25 21" fill="none" xmlns="http://www.w3.org/2000/svg">
<path d="M1.19995 13.73L3.65995 10.5L6.87995 12.95" stroke="white" stroke-width="1.5" stroke-linecap="round" stroke-linejoin="round"/>
<path d="M23.7999 7.27002L21.3399 10.5L18.1199 8.05002" stroke="white" stroke-width="1.5" stroke-linecap="round" stroke-linejoin="round"/>
<path d="M3.65991 10.5C3.66135 12.4857 4.33133 14.4132 5.56187 15.9717C6.79242 17.5302 8.51187 18.629 10.4431 19.091C12.3744 19.553 14.4049 19.3514 16.2076 18.5185C18.0102 17.6856 19.48 16.2701 20.3799 14.5" stroke="white" stroke-width="1.5" stroke-linecap="round" stroke-linejoin="round"/>
<path d="M4.61987 6.48987C5.51984 4.71977 6.98957 3.30423 8.79221 2.47137C10.5949 1.63851 12.6254 1.43684 14.5567 1.89886C16.4879 2.36088 18.2074 3.45968 19.4379 5.01819C20.6685 6.57669 21.3384 8.50412 21.3399 10.4899" stroke="white" stroke-width="1.5" stroke-linecap="round" stroke-linejoin="round"/>
</svg>
