<svg width="29" height="29" viewBox="0 0 29 29" fill="none" xmlns="http://www.w3.org/2000/svg">
<path d="M27.9399 16.9999L24.7199 14.9999C24.6842 14.9835 24.6544 14.9564 24.6347 14.9224C24.615 14.8883 24.6064 14.849 24.6099 14.8099C24.6099 14.5699 24.6099 14.3499 24.6099 14.1299C24.6099 13.9099 24.6099 13.9499 24.7299 13.9099C25.7999 13.2499 26.8699 12.5699 27.9499 11.9099L28.0599 11.8299C27.3599 10.1299 26.6499 8.43989 25.9499 6.73989H25.8399L25.0699 6.92988C24.0699 7.14988 23.0699 7.36988 22.0699 7.60988C22.0373 7.61764 22.0032 7.61613 21.9714 7.60553C21.9396 7.59493 21.9114 7.57565 21.8899 7.54988C21.7334 7.37337 21.5665 7.2064 21.3899 7.04988C21.3604 7.02692 21.3387 6.99532 21.328 6.95947C21.3172 6.92363 21.3179 6.88532 21.3299 6.84988C21.6099 5.60988 21.8899 4.36988 22.1799 3.12988C22.1828 3.08326 22.1828 3.03651 22.1799 2.98988C20.4799 2.29988 18.7899 1.58988 17.0899 0.879883C17.0647 0.926347 17.0346 0.969937 16.9999 1.00988C16.3399 2.08988 15.6699 3.14988 14.9999 4.21988C14.9833 4.25829 14.9551 4.29053 14.9192 4.31206C14.8834 4.33358 14.8416 4.34332 14.7999 4.33988C14.5704 4.32001 14.3395 4.32001 14.1099 4.33988C14.0654 4.34465 14.0205 4.33571 13.9812 4.31427C13.9419 4.29283 13.91 4.2599 13.8899 4.21988C13.2299 3.14988 12.5699 2.06988 11.8899 0.999884L11.8099 0.879883C10.1499 1.62655 8.46994 2.33322 6.76994 2.99988C6.76802 3.03319 6.76802 3.06658 6.76994 3.09988L7.34994 5.63988C7.44994 6.05988 7.53994 6.44988 7.62994 6.86988C7.64892 6.89025 7.65948 6.91705 7.65948 6.94488C7.65948 6.97272 7.64892 6.99952 7.62994 7.01988L7.06994 7.57989C7.05263 7.59287 7.03158 7.59988 7.00994 7.59988C6.9883 7.59988 6.96725 7.59287 6.94994 7.57989H6.85994L3.16994 6.71988H3.05994L0.939941 11.8099L1.05994 11.8899L4.26994 13.8899C4.31254 13.913 4.3475 13.948 4.37058 13.9906C4.39366 14.0332 4.40386 14.0816 4.39994 14.1299C4.38496 14.353 4.38496 14.5768 4.39994 14.7999C4.40403 14.843 4.39469 14.8863 4.37321 14.9239C4.35173 14.9615 4.31915 14.9915 4.27994 15.0099L1.05994 17.0099L0.939941 17.0799C1.64994 18.7899 2.34994 20.4899 3.05994 22.1899H3.17994L3.99994 21.9999C4.99994 21.7599 5.99994 21.5499 6.93994 21.3199C6.97549 21.3093 7.01338 21.3093 7.04892 21.3199C7.08446 21.3306 7.1161 21.3514 7.13994 21.3799C7.29994 21.5499 7.46994 21.7099 7.63994 21.8799C7.67076 21.9018 7.6934 21.9334 7.70426 21.9696C7.71513 22.0058 7.71361 22.0446 7.69994 22.0799C7.44994 23.1499 7.19994 24.2399 6.95994 25.3299C6.95994 25.5099 6.86994 25.7099 6.81994 25.9199L11.9199 28.0299L12.0099 27.8899L14.0099 24.6899C14.0281 24.6533 14.057 24.6232 14.0927 24.6036C14.1285 24.5839 14.1694 24.5756 14.2099 24.5799H14.8899C14.9354 24.578 14.9806 24.5881 15.021 24.6091C15.0613 24.6302 15.0955 24.6615 15.1199 24.6999L17.1199 27.8999L17.2099 28.0299L22.2199 25.9999C22.2256 25.9267 22.2256 25.8531 22.2199 25.7799C21.9399 24.5699 21.6599 23.3399 21.3799 22.1399C21.3659 22.1137 21.3586 22.0845 21.3586 22.0549C21.3586 22.0252 21.3659 21.996 21.3799 21.9699C21.5499 21.7999 21.7199 21.6499 21.8799 21.4699C21.9074 21.4372 21.9437 21.4131 21.9845 21.4007C22.0254 21.3883 22.0689 21.388 22.1099 21.3999L25.7599 22.2299H25.9399C26.6066 20.5299 27.3133 18.8265 28.0599 17.1199C28.0155 17.0846 27.9752 17.0444 27.9399 16.9999V16.9999ZM25.0599 20.4399H24.9999L21.7199 19.6799C21.4799 19.6199 21.4799 19.6199 21.3299 19.7999C20.863 20.3451 20.3513 20.8502 19.7999 21.3099C19.7612 21.3347 19.7328 21.3726 19.7199 21.4167C19.707 21.4609 19.7106 21.5082 19.7299 21.5499C19.9999 22.6899 20.2599 23.8199 20.5199 24.9599L17.7299 26.1999L17.6499 26.0799L15.8499 23.1999C15.8499 23.1999 15.8499 23.1499 15.8499 23.1199C15.8409 23.0968 15.8237 23.0779 15.8015 23.0668C15.7793 23.0557 15.7538 23.0532 15.7299 23.0599H15.2199C14.6747 23.1148 14.1252 23.1148 13.5799 23.0599C13.4899 23.0599 13.3799 23.0599 13.2999 23.0599C13.2199 23.0599 13.1899 23.1999 13.1399 23.2699L11.3899 26.0699C11.3899 26.0699 11.3399 26.1399 11.3099 26.1799L8.54994 25.0299L8.60994 24.7299L9.35994 21.5199C9.36972 21.4889 9.36915 21.4555 9.35833 21.4249C9.34751 21.3942 9.32701 21.3679 9.29994 21.3499C8.79483 20.938 8.32334 20.4866 7.88994 19.9999C7.79302 19.9056 7.70591 19.8017 7.62994 19.6899C7.6093 19.6631 7.58115 19.6431 7.54909 19.6324C7.51703 19.6217 7.48251 19.6209 7.44994 19.6299C6.98994 19.7499 6.51994 19.8599 6.05994 19.9599L4.11994 20.4199H3.93994L2.79994 17.7299L2.91994 17.6499L5.81994 15.8499C5.86217 15.8303 5.89626 15.7967 5.91634 15.7547C5.93642 15.7127 5.94123 15.665 5.92994 15.6199C5.92994 15.4299 5.92994 15.2399 5.92994 15.0499C5.88 14.5244 5.88 13.9954 5.92994 13.4699C5.92994 13.2399 5.92994 13.2399 5.75994 13.1399L2.92994 11.3599C2.88801 11.331 2.84462 11.3043 2.79994 11.2799L3.93994 8.49988C5.14994 8.78988 6.34994 9.04988 7.54994 9.33988L7.63994 9.23989C8.13995 8.65489 8.68495 8.10989 9.26994 7.60988C9.28698 7.5886 9.29627 7.56215 9.29627 7.53488C9.29627 7.50762 9.28698 7.48117 9.26994 7.45988C9.00994 6.32988 8.73994 5.19989 8.47994 4.05989C8.47994 4.05989 8.47994 3.98988 8.47994 3.94988L11.2399 2.78988C11.2653 2.83938 11.2954 2.88627 11.3299 2.92988L13.1299 5.82989C13.1457 5.87012 13.1762 5.90284 13.2152 5.92142C13.2542 5.93999 13.2988 5.94302 13.3399 5.92988C13.7983 5.88162 14.259 5.85826 14.7199 5.85988L15.5999 5.92988C15.6371 5.94036 15.6769 5.93701 15.7118 5.92047C15.7467 5.90393 15.7745 5.8753 15.7899 5.83988C16.3899 4.83988 16.9999 3.90988 17.6099 2.92988C17.6456 2.88708 17.6758 2.84006 17.6999 2.78988C18.6199 3.17988 19.5399 3.54988 20.4599 3.94988C20.4599 4.10988 20.3899 4.26988 20.3499 4.41988C20.1199 5.41988 19.8899 6.41988 19.6499 7.41988C19.6336 7.44336 19.6248 7.47128 19.6248 7.49988C19.6248 7.52849 19.6336 7.55641 19.6499 7.57989C20.2579 8.08282 20.817 8.64196 21.3199 9.24988L21.3699 9.29988L24.9699 8.45988C25.3599 9.37988 25.7299 10.3099 26.1199 11.2399C25.0699 11.8799 24.0199 12.5399 22.9799 13.1899C22.9799 13.3199 22.9799 13.4399 22.9799 13.5699C23.0148 13.9858 23.0148 14.4039 22.9799 14.8199C22.9799 15.0799 22.9799 15.3299 22.9199 15.5799C22.9115 15.6171 22.9157 15.656 22.932 15.6905C22.9484 15.7249 22.9758 15.7529 23.0099 15.7699L25.9399 17.6099L26.0599 17.6899L25.0599 20.4399Z" fill="white"/>
<path d="M23.1501 15.8101C23.1159 15.7931 23.0885 15.7651 23.0722 15.7307C23.0558 15.6962 23.0516 15.6573 23.0601 15.6201C23.0601 15.3701 23.06 15.1201 23.12 14.8601C23.1549 14.4441 23.1549 14.026 23.12 13.6101C23.12 13.4801 23.12 13.3601 23.12 13.2301C24.12 12.5801 25.21 11.9201 26.26 11.2801C25.87 10.3501 25.5001 9.42008 25.1101 8.50008L21.51 9.34008L21.46 9.29008C20.9571 8.68216 20.398 8.12301 19.7901 7.62008C19.7737 7.5966 19.7649 7.56868 19.7649 7.54008C19.7649 7.51147 19.7737 7.48355 19.7901 7.46008C20.0301 6.46008 20.2601 5.46008 20.4901 4.46008C20.4901 4.31008 20.57 4.15008 20.6 3.99008C19.68 3.59008 18.76 3.22008 17.84 2.83008C17.8159 2.88025 17.7857 2.92727 17.75 2.97008C17.14 3.97008 16.53 4.90008 15.93 5.88008C15.9146 5.9155 15.8868 5.94412 15.8519 5.96066C15.817 5.97721 15.7773 5.98055 15.7401 5.97008L14.8601 5.90008C14.3991 5.89845 13.9384 5.92182 13.48 5.97008C13.4389 5.98322 13.3943 5.98019 13.3553 5.96161C13.3163 5.94304 13.2858 5.91031 13.2701 5.87008L11.4701 2.97008C11.4355 2.92647 11.4054 2.87958 11.3801 2.83008L8.51005 4.00008C8.51005 4.00008 8.51005 4.08008 8.51005 4.11008C8.77005 5.25008 9.04005 6.38008 9.30005 7.51008C9.31709 7.53136 9.32637 7.55781 9.32637 7.58508C9.32637 7.61234 9.31709 7.63879 9.30005 7.66008C8.71505 8.16009 8.17006 8.70508 7.67005 9.29008L7.58005 9.39008C6.38005 9.10008 5.18005 8.84008 3.97005 8.55008L2.80005 11.2801C2.84473 11.3045 2.88812 11.3312 2.93005 11.3601L5.76005 13.1401C5.95005 13.2401 5.95005 13.2401 5.93005 13.4701C5.88011 13.9956 5.88011 14.5246 5.93005 15.0501C5.93005 15.2401 5.93005 15.4301 5.93005 15.6201C5.94134 15.6652 5.93653 15.7129 5.91645 15.7549C5.89637 15.7969 5.86228 15.8305 5.82005 15.8501L2.92005 17.6501L2.80005 17.7301L3.94005 20.4901H4.12005L6.06005 20.0001C6.52005 19.9001 6.99005 19.7901 7.45005 19.6701C7.48262 19.6611 7.51714 19.6619 7.5492 19.6726C7.58126 19.6833 7.60941 19.7033 7.63005 19.7301C7.70602 19.8419 7.79313 19.9458 7.89005 20.0401C8.31148 20.5183 8.76953 20.963 9.26005 21.3701C9.28712 21.3881 9.30761 21.4144 9.31844 21.4451C9.32926 21.4757 9.32982 21.5091 9.32005 21.5401L8.57005 24.7501L8.51005 25.0501L11.2701 26.2001C11.2701 26.2001 11.27 26.1101 11.35 26.0901L13.1 23.2901C13.1 23.2201 13.19 23.1101 13.26 23.0801C13.33 23.0501 13.4501 23.0801 13.5401 23.0801C14.0853 23.135 14.6348 23.135 15.18 23.0801H15.69C15.7139 23.0734 15.7394 23.0759 15.7616 23.087C15.7838 23.0981 15.801 23.117 15.8101 23.1401C15.8101 23.1401 15.8101 23.1901 15.8101 23.2201L17.6101 26.1001L17.69 26.2201L20.4501 25.0701C20.1901 23.9301 19.93 22.8001 19.66 21.6601C19.6407 21.6184 19.6371 21.5711 19.65 21.5269C19.6629 21.4828 19.6913 21.4448 19.73 21.4201C20.2814 20.9604 20.7932 20.4553 21.26 19.9101C21.41 19.7301 21.4101 19.7301 21.6501 19.7901L24.93 20.5501H25.03L26.17 17.8001L26.05 17.7201L23.1501 15.8101ZM14.5 19.5001C13.5111 19.5001 12.5444 19.2068 11.7222 18.6574C10.9 18.108 10.2591 17.3271 9.88065 16.4135C9.50222 15.4999 9.4032 14.4945 9.59612 13.5246C9.78905 12.5547 10.2653 11.6638 10.9645 10.9645C11.6638 10.2653 12.5547 9.78908 13.5246 9.59615C14.4945 9.40323 15.4998 9.50224 16.4135 9.88068C17.3271 10.2591 18.108 10.9 18.6574 11.7222C19.2068 12.5445 19.5 13.5112 19.5 14.5001C19.5 15.8262 18.9733 17.0979 18.0356 18.0356C17.0979 18.9733 15.8261 19.5001 14.5 19.5001Z" fill="white"/>
<path d="M14.5 9.47998C13.5111 9.47998 12.5444 9.77322 11.7222 10.3226C10.8999 10.872 10.259 11.6529 9.88061 12.5666C9.50217 13.4802 9.40315 14.4855 9.59608 15.4554C9.789 16.4253 10.2652 17.3163 10.9645 18.0155C11.6637 18.7148 12.5546 19.191 13.5245 19.3839C14.4945 19.5768 15.4998 19.4778 16.4134 19.0994C17.3271 18.7209 18.1079 18.0801 18.6574 17.2578C19.2068 16.4356 19.5 15.4689 19.5 14.48C19.5 13.1539 18.9732 11.8821 18.0355 10.9444C17.0979 10.0068 15.8261 9.47998 14.5 9.47998V9.47998ZM14.5 18.02C13.803 18.0239 13.1205 17.8209 12.539 17.4365C11.9575 17.0521 11.5032 16.5038 11.2337 15.8609C10.9642 15.2181 10.8917 14.5097 11.0252 13.8256C11.1588 13.1415 11.4924 12.5124 11.9839 12.0181C12.4754 11.5238 13.1025 11.1866 13.7859 11.0492C14.4692 10.9117 15.178 10.9802 15.8224 11.2461C16.4667 11.5119 17.0177 11.963 17.4054 12.5423C17.793 13.1216 18 13.8029 18 14.5C18 15.4282 17.6313 16.3185 16.9749 16.9749C16.3185 17.6312 15.4283 18 14.5 18V18.02Z" fill="white"/>
</svg>
