<svg width="29" height="29" viewBox="0 0 29 29" fill="none" xmlns="http://www.w3.org/2000/svg">
<path d="M28.07 17.1301L26 22.2301H25.82L22.17 21.3901C22.1306 21.3776 22.0883 21.3776 22.0489 21.3902C22.0095 21.4027 21.9749 21.4271 21.95 21.4601L21.44 21.9601C21.4268 21.9847 21.42 22.0122 21.42 22.0401C21.42 22.068 21.4268 22.0955 21.44 22.1201L22.28 25.7801C22.2856 25.85 22.2856 25.9202 22.28 25.9901L17.19 28.1101L17 27.9401L15 24.7401C14.9799 24.7001 14.948 24.6672 14.9087 24.6457C14.8694 24.6243 14.8245 24.6154 14.78 24.6201H14.09C14.0503 24.6118 14.0089 24.6171 13.9726 24.6353C13.9363 24.6534 13.9072 24.6833 13.89 24.7201L11.89 27.9301L11.8 28.0701L6.76998 26.0001C6.76998 25.7901 6.85998 25.6001 6.90998 25.4001C7.14998 24.3201 7.39998 23.2401 7.64998 22.1601C7.6628 22.1232 7.66391 22.0832 7.65317 22.0456C7.64243 22.0081 7.62037 21.9747 7.58998 21.9501C7.41998 21.8001 7.24998 21.6301 7.08998 21.4601C7.06807 21.4293 7.0365 21.4067 7.00028 21.3958C6.96406 21.3849 6.92524 21.3864 6.88998 21.4001L3.99998 22.0001L3.21998 22.1801H3.09998L0.97998 17.0901L1.09998 17.0101L4.31998 15.0101C4.35919 14.9918 4.39177 14.9617 4.41325 14.9241C4.43473 14.8865 4.44407 14.8432 4.43998 14.8001C4.42497 14.5737 4.42497 14.3465 4.43998 14.1201C4.44249 14.0747 4.43148 14.0296 4.40834 13.9904C4.3852 13.9512 4.35098 13.9198 4.30998 13.9001L1.09998 11.9001L0.97998 11.8201L3.09998 6.73012H3.20998L6.89998 7.57012H6.98998C7.03998 7.57012 7.06998 7.57012 7.10998 7.57012L7.66998 7.00012C7.68896 6.97975 7.69951 6.95295 7.69951 6.92512C7.69951 6.89728 7.68896 6.87048 7.66998 6.85011C7.57998 6.44011 7.48998 6.03012 7.38998 5.62012C7.19998 4.77012 6.99998 3.92012 6.80998 3.07012C6.80761 3.0435 6.80761 3.01673 6.80998 2.99012L11.91 0.880116L11.99 1.00012C12.66 2.07012 13.32 3.14012 13.99 4.21012C14.0092 4.25034 14.0412 4.28301 14.0811 4.30293C14.1209 4.32286 14.1663 4.32891 14.21 4.32012H14.9C14.9409 4.32773 14.9832 4.32093 15.0196 4.30087C15.0561 4.28082 15.0845 4.24874 15.1 4.21012L17.1 1.00012L17.19 0.870117L22.28 2.99012C22.28 3.04012 22.28 3.09012 22.28 3.13012C21.99 4.36012 21.71 5.60012 21.43 6.83012C21.4163 6.86538 21.4148 6.90419 21.4257 6.94041C21.4365 6.97664 21.4592 7.0082 21.49 7.03012L21.99 7.54012C22.0165 7.55817 22.0479 7.56783 22.08 7.56783C22.1121 7.56783 22.1434 7.55817 22.17 7.54012L25.17 6.86012L25.94 6.68012H26L28.12 11.7701L28 12.0001L24.78 14.0001C24.7406 14.0175 24.7082 14.0477 24.6882 14.0859C24.6682 14.124 24.6618 14.1678 24.67 14.2101V14.9001C24.6634 14.9397 24.6695 14.9805 24.6874 15.0164C24.7054 15.0523 24.7343 15.0816 24.77 15.1001L27.99 17.1001L28.07 17.1301ZM2.79998 11.2701L2.92998 11.3601L5.75998 13.1301C5.94998 13.2501 5.94998 13.2501 5.92998 13.4701C5.88004 13.9956 5.88004 14.5246 5.92998 15.0501C5.92998 15.2501 5.92998 15.4401 5.92998 15.6301C5.94019 15.6725 5.93466 15.7172 5.91443 15.7558C5.8942 15.7944 5.86064 15.8244 5.81998 15.8401L2.91998 17.6501L2.79998 17.7301L3.93998 20.4901H4.11998L6.05998 20.0001L7.44998 19.6701C7.48246 19.6596 7.51745 19.6598 7.54984 19.6706C7.58222 19.6814 7.6103 19.7022 7.62998 19.7301C7.7112 19.8379 7.79798 19.9414 7.88998 20.0401C8.3141 20.5127 8.77197 20.9538 9.25998 21.3601C9.28705 21.3781 9.30755 21.4044 9.31837 21.4351C9.32919 21.4658 9.32976 21.4991 9.31998 21.5301L8.56998 24.7501L8.50998 25.0501L11.27 26.1901C11.2917 26.1501 11.3186 26.1131 11.35 26.0801C11.93 25.1501 12.51 24.2101 13.1 23.2801C13.1 23.2101 13.19 23.1001 13.26 23.0601C13.3523 23.0404 13.4477 23.0404 13.54 23.0601C14.0853 23.1151 14.6347 23.1151 15.18 23.0601H15.69C15.7137 23.057 15.7378 23.0611 15.7591 23.0718C15.7805 23.0825 15.7982 23.0993 15.81 23.1201C15.81 23.1201 15.81 23.1701 15.81 23.2001L17.61 26.0801L17.69 26.2001L20.45 25.0601C20.45 25.0601 20.45 25.0101 20.45 25.0001C20.19 23.8601 19.93 22.7301 19.66 21.5901C19.6406 21.5484 19.6371 21.5011 19.6499 21.457C19.6628 21.4129 19.6913 21.3749 19.73 21.3501C20.2837 20.8931 20.7957 20.3877 21.26 19.8401C21.42 19.6601 21.41 19.6601 21.65 19.7101L24.93 20.4801H25.03L26.17 17.7201L26.05 17.6401L23.12 15.8101C23.087 15.7919 23.0605 15.7637 23.0444 15.7296C23.0282 15.6955 23.0232 15.6572 23.03 15.6201C23.03 15.3701 23.03 15.1101 23.09 14.8601C23.1249 14.4408 23.1249 14.0194 23.09 13.6001V13.2201L26.23 11.2201L25.05 8.50012L21.45 9.34012C21.45 9.34012 21.45 9.34012 21.4 9.29012C20.897 8.68219 20.3379 8.12305 19.73 7.62012C19.7136 7.59664 19.7049 7.56872 19.7049 7.54012C19.7049 7.51151 19.7136 7.48359 19.73 7.46012C19.97 6.46012 20.2 5.46012 20.43 4.46012L20.55 3.97012L17.73 2.80012L17.64 2.93012C17.03 3.93012 16.42 4.87012 15.82 5.84012C15.8021 5.874 15.7744 5.90168 15.7405 5.91953C15.7066 5.93737 15.668 5.94455 15.63 5.94011L14.75 5.87012C14.2892 5.86015 13.8282 5.88019 13.37 5.93012C13.3288 5.94098 13.2851 5.9369 13.2467 5.91859C13.2082 5.90028 13.1775 5.86893 13.16 5.83012L11.36 2.94012L11.27 2.80012L8.50998 3.94012C8.50998 3.94012 8.50998 4.03012 8.50998 4.07012C8.77998 5.20012 9.03998 6.33012 9.29998 7.46012C9.31782 7.48297 9.32751 7.51113 9.32751 7.54012C9.32751 7.56911 9.31782 7.59726 9.29998 7.62012C8.70779 8.11229 8.16216 8.65793 7.66998 9.25012L7.57998 9.34012L3.99998 8.50012L2.79998 11.2701Z" fill="white"/>
<path d="M14.5 19.5103C13.5111 19.5103 12.5444 19.217 11.7222 18.6676C10.8999 18.1182 10.259 17.3373 9.88061 16.4237C9.50217 15.51 9.40315 14.5047 9.59608 13.5348C9.789 12.5649 10.2652 11.674 10.9645 10.9747C11.6637 10.2755 12.5546 9.79926 13.5245 9.60633C14.4945 9.4134 15.4998 9.51242 16.4134 9.89086C17.3271 10.2693 18.1079 10.9102 18.6574 11.7324C19.2068 12.5546 19.5 13.5213 19.5 14.5103C19.5 15.8363 18.9732 17.1081 18.0355 18.0458C17.0979 18.9835 15.8261 19.5103 14.5 19.5103V19.5103ZM14.5 18.0203C15.1966 18.0242 15.8787 17.8214 16.46 17.4375C17.0412 17.0535 17.4955 16.5058 17.7653 15.8635C18.0351 15.2213 18.1082 14.5134 17.9755 13.8296C17.8427 13.1457 17.5101 12.5166 17.0196 12.0219C16.5291 11.5273 15.9029 11.1892 15.2202 11.0507C14.5375 10.9121 13.8291 10.9792 13.1845 11.2435C12.54 11.5078 11.9884 11.9574 11.5995 12.5353C11.2106 13.1133 11.002 13.7936 11 14.4903C11 15.4194 11.3684 16.3107 12.0245 16.9687C12.6806 17.6266 13.5708 17.9976 14.5 18.0003V18.0203Z" fill="white"/>
</svg>
