<svg width="27" height="27" viewBox="0 0 27 27" fill="none" xmlns="http://www.w3.org/2000/svg">
<path d="M0.429932 22.3799C0.642151 21.4597 1.13483 20.6281 1.83993 19.9999C5.17993 16.6799 8.48993 13.3499 11.8399 9.99987C11.924 9.93204 11.9853 9.84014 12.0157 9.73648C12.0461 9.63282 12.0441 9.52235 12.0099 9.41987C11.7865 8.43854 11.7665 7.42186 11.951 6.43248C12.1355 5.44311 12.5207 4.50201 13.0829 3.6672C13.6451 2.8324 14.3722 2.12158 15.2196 1.57857C16.067 1.03555 17.0166 0.671847 18.0099 0.509873C19.286 0.287307 20.5984 0.411641 21.8099 0.869874C21.9619 0.904059 22.1011 0.98084 22.211 1.09123C22.3209 1.20161 22.3972 1.34104 22.4307 1.49318C22.4643 1.64531 22.4539 1.80387 22.4006 1.95028C22.3473 2.09669 22.2534 2.22489 22.1299 2.31987C20.8833 3.55987 19.6466 4.78654 18.4199 5.99987C18.3487 6.06374 18.2968 6.14638 18.2703 6.23833C18.2437 6.33029 18.2436 6.42786 18.2699 6.51987C18.3999 7.02987 18.4999 7.51987 18.5999 8.06987C18.609 8.15332 18.647 8.23097 18.7072 8.2894C18.7675 8.34783 18.8462 8.38337 18.9299 8.38987C19.4499 8.48987 19.9299 8.59987 20.4999 8.72987C20.5835 8.75324 20.672 8.7525 20.7551 8.72773C20.8383 8.70296 20.9128 8.65516 20.9699 8.58987C22.1899 7.35654 23.4166 6.12987 24.6499 4.90987C24.7504 4.7814 24.8865 4.68538 25.0412 4.63381C25.196 4.58223 25.3625 4.57738 25.5199 4.61987C25.6459 4.65836 25.7607 4.72661 25.8547 4.81887C25.9487 4.91112 26.0191 5.02466 26.0599 5.14987C26.4402 6.12917 26.6073 7.17828 26.55 8.22725C26.4928 9.27622 26.2126 10.3009 25.7281 11.2331C25.2436 12.1652 24.5659 12.9833 23.7402 13.6328C22.9146 14.2824 21.9599 14.7484 20.9399 14.9999C19.8402 15.2751 18.6896 15.2751 17.5899 14.9999C17.4712 14.9605 17.3433 14.9586 17.2234 14.9943C17.1036 15.0301 16.9976 15.1019 16.9199 15.1999C13.5899 18.5399 10.2399 21.8799 6.91993 25.1999C6.30538 25.8656 5.50344 26.3293 4.61993 26.5299H3.48993C2.81184 26.4034 2.17799 26.1037 1.64993 25.6599C1.00662 25.0894 0.576407 24.3171 0.429932 23.4699V22.3799ZM19.9999 2.10987H19.8599H19.7399C18.6935 2.01983 17.6418 2.20603 16.6899 2.64987C15.4564 3.25327 14.4776 4.27542 13.928 5.53383C13.3785 6.79224 13.2941 8.20499 13.6899 9.51987C13.7829 9.74711 13.802 9.99782 13.7446 10.2365C13.6871 10.4752 13.5561 10.6898 13.3699 10.8499C9.78993 14.3365 6.23993 17.8499 2.71993 21.3899C2.46654 21.6141 2.26937 21.8947 2.14431 22.2091C2.01925 22.5235 1.96979 22.8629 1.99993 23.1999C2.05445 23.6567 2.26032 24.0821 2.58473 24.4084C2.90914 24.7346 3.33342 24.9428 3.78993 24.9999C4.1293 25.0337 4.47185 24.987 4.7898 24.8636C5.10775 24.7403 5.39215 24.5437 5.61993 24.2899L16.2699 13.5999C16.4082 13.4326 16.5971 13.3148 16.8081 13.2643C17.0192 13.2137 17.2409 13.2333 17.4399 13.3199C18.1357 13.5517 18.8707 13.6428 19.6021 13.5878C20.3334 13.5329 21.0466 13.333 21.6999 12.9999C22.6003 12.5808 23.3735 11.9306 23.9409 11.1156C24.5082 10.3005 24.8495 9.3497 24.9299 8.35987C24.9878 7.90644 24.9675 7.44645 24.8699 6.99987L24.6299 7.23987C23.6299 8.23987 22.6299 9.17987 21.7099 10.1599C21.5871 10.2971 21.4286 10.3978 21.2522 10.4507C21.0757 10.5037 20.8881 10.5068 20.7099 10.4599L17.9199 9.85987C17.7336 9.83198 17.5612 9.74503 17.428 9.61183C17.2948 9.47862 17.2078 9.30618 17.1799 9.11987C16.9899 8.21987 16.8099 7.31987 16.5899 6.42987C16.5306 6.2266 16.5301 6.01066 16.5885 5.80712C16.6469 5.60357 16.7618 5.42076 16.9199 5.27987C17.9199 4.33987 18.8399 3.36987 19.7899 2.41987C19.8912 2.34159 19.9648 2.23296 19.9999 2.10987V2.10987Z" fill="white" stroke="white" stroke-width="0.25" stroke-miterlimit="10"/>
</svg>
